<?xml version="1.0" encoding="utf-8"?>
<!-- Generator: Adobe Illustrator 24.0.2, SVG Export Plug-In . SVG Version: 6.00 Build 0)  -->
<svg version="1.1" id="Layer_1" xmlns="http://www.w3.org/2000/svg" xmlns:xlink="http://www.w3.org/1999/xlink" x="0px" y="0px"
	 viewBox="0 0 512 512" style="enable-background:new 0 0 512 512;" xml:space="preserve">
<style type="text/css">
	.st0{fill:#4D33AA;}
	.st1{fill-rule:evenodd;clip-rule:evenodd;fill:#FFFFFF;}
</style>
<g>
	<path class="st0" d="M141.809,284.949L298.151,68.582c-7.013-1.751-14.177-3.122-21.476-4.067l25.366-35.122
		c-14.784-2.957-29.991-4.506-45.479-4.506c-63.783,0-121.512,25.908-163.33,67.726c-41.818,41.818-67.726,99.547-67.726,163.33
		s25.908,121.512,67.726,163.33c17.319,17.319,37.453,31.962,59.559,43.085l11.928-41.27c5.894,3.063,11.976,5.813,18.212,8.255
		l48.287-167.205L141.809,284.949z"/>
	<path class="st0" d="M419.893,92.613c-18.586-18.586-40.269-34.074-64.206-45.479l-10.23,40.345
		c-5.846-3.312-11.891-6.312-18.102-9.001l-40.098,159.161l84.059-14.08L212.9,438.289c7.236,1.519,14.62,2.635,22.134,3.304
		l-29.301,39.774c16.333,3.661,33.37,5.632,50.829,5.632c63.783,0,121.512-25.907,163.33-67.726
		c41.818-41.818,67.726-99.547,67.726-163.33S461.711,134.432,419.893,92.613z"/>
</g>
<polygon class="st1" points="230.491,262.178 158.056,513 371.809,223.263 287.018,237.465 347.096,-1 140.303,285.187 "/>
</svg>
