<?xml version="1.0" encoding="utf-8"?>
<!-- Generator: Adobe Illustrator 24.0.2, SVG Export Plug-In . SVG Version: 6.00 Build 0)  -->
<svg version="1.1" id="Layer_1" xmlns="http://www.w3.org/2000/svg" xmlns:xlink="http://www.w3.org/1999/xlink" x="0px" y="0px"
	 viewBox="0 0 120.469 120.472" style="enable-background:new 0 0 120.469 120.472;" xml:space="preserve">
<style type="text/css">
	.st0{fill:#3BA991;}
</style>
<g>
	<path class="st0" d="M29.112,21.577c3.481,0,6.858,0,10.32,0c-0.447,2.982-0.874,5.888-1.319,8.791
		c-1.168,7.625-2.34,15.249-3.519,22.872c-0.766,4.951-1.542,9.901-2.324,14.849c-0.278,1.757,0.07,2.249,1.862,2.548
		c1.336,0.223,2.673,0.44,4.007,0.674c0.737,0.129,1.017-0.105,1.138-0.904c1.385-9.159,2.825-18.311,4.239-27.466
		c1.05-6.799,2.106-13.598,3.1-20.405c0.122-0.838,0.413-1.048,1.195-1.04c3.067,0.034,6.135,0.014,9.32,0.014
		c-2.51,16.302-5,32.475-7.514,48.803c2.409,0.374,4.706,0.73,7.13,1.107c2.579-16.69,5.138-33.242,7.704-49.849
		c2.194,0,4.295,0,6.532,0c0,23.386,0,46.76,0,70.206c-10.602,0-21.119,0-31.755,0c-0.352-4.797-2.271-8.737-6.29-11.518
		c-2.583-1.788-5.46-2.622-8.568-2.484c-6.012,0.267-12.847,4.322-13.783,13.995c-3.45,0-6.908,0-10.502,0
		c-0.02-0.422-0.057-0.844-0.057-1.267C0.02,75.83,0.021,61.156,0,46.483c-0.001-0.949,0.219-1.741,0.767-2.543
		c4.944-7.234,9.843-14.498,14.778-21.738c0.21-0.309,0.638-0.646,0.977-0.66c1.669-0.068,3.342-0.031,5.266-0.031
		c-2.505,16.279-4.991,32.439-7.507,48.792c2.364,0.373,4.693,0.74,7.147,1.126C24.002,54.731,26.555,38.165,29.112,21.577z"/>
	<path class="st0" d="M85.08,91.79c-2.265,0-4.447,0-6.711,0c0-21.073,0-42.1,0-63.237c4.568,0,9.13,0,13.839,0
		c0,11.779,0,23.475,0,35.274c9.466,0,18.787,0,28.217,0c0,9.364,0,18.624,0,27.947c-2.254,0-4.471,0-6.782,0
		c-0.244-4.889-2.312-8.805-6.347-11.585c-2.567-1.769-5.471-2.585-8.581-2.416C91.811,78.151,85.618,83.306,85.08,91.79z"/>
	<path class="st0" d="M99.537,28.582c5.337-0.437,10.207,0.427,14.384,3.833c3.94,3.213,6.229,7.343,6.46,12.426
		c0.175,3.85,0.035,7.714,0.035,11.697c-0.407,0.023-0.831,0.069-1.254,0.069c-6.225,0.004-12.45-0.007-18.675,0.016
		c-0.746,0.003-1.057-0.158-1.054-0.987c0.028-8.687,0.018-17.374,0.023-26.06C99.456,29.262,99.506,28.949,99.537,28.582z"/>
	<path class="st0" d="M17.942,91.863c0.046-3.737,3.262-6.901,6.992-6.878c3.825,0.024,7.03,3.217,7.017,6.992
		c-0.013,3.863-3.266,7.057-7.126,6.999C21.006,98.918,17.895,95.703,17.942,91.863z"/>
	<path class="st0" d="M92.422,91.946c0.007-3.847,3.16-6.989,6.985-6.961c3.855,0.028,6.976,3.187,6.944,7.029
		c-0.032,3.876-3.146,6.967-7.005,6.954C95.53,98.956,92.415,95.797,92.422,91.946z"/>
</g>
</svg>
