<svg xmlns="http://www.w3.org/2000/svg" viewBox="0 0 177.356 177.356">
	<style type="text/css">
		.st0{fill:#0082CA;}
		.st1{fill-rule:evenodd;clip-rule:evenodd;fill:#FFFFFF;}
		.st2{fill:#FFFFFF;}
	</style>
	<g>
		<path class="st0" d="M177.356,88.678c0,48.962-39.716,88.678-88.678,88.678C39.716,177.356,0,137.64,0,88.678S39.716,0,88.678,0 C137.64,0,177.356,39.716,177.356,88.678L177.356,88.678z"/>
		<path class="st1" d="M106.487,141.318c3.1,0.473,7.565,0.525,9.771-0.63c0.683-0.21,5.464-2.679,6.409-3.1 c1.786-0.946,4.938-1.996,3.94-5.201c-0.42-1.103-10.244-15.918-11.295-17.652c-0.788-1.208-3.205-4.991-3.887-5.831 c-0.788-0.788-2.364-1.418-3.888-1.051c-3.205,0.63-7.985,4.833-11.085,5.148c-9.088,0.893-27.528-33.254-28.474-37.299 c-2.154-8.511,7.04-7.04,11.242-11.4c0.788-0.893,1.156-2.206,0.683-3.52c-0.578-1.208-11.82-18.387-13.449-20.856 c-1.156-1.839-2.417-4.781-5.779-4.15c-1.051,0.21-2.469,1.051-3.257,1.471C16.759,57.683,75.072,136.432,106.487,141.318 L106.487,141.318z"/>
		<path class="st2" d="M128.447,101.759c-0.263,0-0.473-0.053-0.735-0.158c-0.946-0.473-1.418-1.576-0.946-2.574 c3.993-9.036,4.255-19.123,0.736-28.369c-3.572-9.246-10.507-16.548-19.543-20.594c-6.041-2.679-12.661-3.73-19.175-2.942 c-1.103,0.105-2.049-0.683-2.154-1.734c-0.105-1.051,0.63-1.996,1.681-2.154c7.25-0.788,14.552,0.368,21.224,3.31 c9.982,4.465,17.652,12.556,21.592,22.747c3.888,10.192,3.572,21.329-0.84,31.311C129.918,101.339,129.182,101.759,128.447,101.759 L128.447,101.759z"/>
		<path class="st2" d="M119.674,99.921c-0.21,0-0.42-0.053-0.63-0.158c-0.893-0.368-1.313-1.418-0.893-2.312 c3.152-7.092,3.362-15.025,0.578-22.275c-2.784-7.25-8.248-12.976-15.34-16.181c-4.728-2.101-9.929-2.889-15.077-2.312 c-0.946,0.105-1.839-0.578-1.944-1.576c-0.105-0.946,0.578-1.786,1.576-1.891c5.726-0.683,11.558,0.263,16.864,2.627 c7.985,3.52,14.079,9.982,17.179,18.072c3.152,8.143,2.889,17.021-0.63,24.954C121.039,99.553,120.357,99.973,119.674,99.921 L119.674,99.921z"/>
		<path class="st2" d="M109.797,97.346c-0.21-0.053-0.42-0.053-0.63-0.158c-0.841-0.42-1.261-1.418-0.841-2.259 c4.465-9.982-0.052-21.749-10.034-26.215c-3.257-1.418-6.777-1.996-10.297-1.576c-0.946,0.105-1.786-0.578-1.891-1.523 c-0.105-0.946,0.578-1.786,1.524-1.891c4.098-0.473,8.248,0.158,12.03,1.891c5.674,2.522,10.034,7.092,12.241,12.871 c2.259,5.831,2.101,12.135-0.473,17.809C111.163,96.979,110.48,97.346,109.797,97.346L109.797,97.346z"/>
	</g>
</svg>
