<?xml version="1.0" encoding="utf-8"?>
<!-- Generator: Adobe Illustrator 24.0.2, SVG Export Plug-In . SVG Version: 6.00 Build 0)  -->
<svg version="1.1" id="Layer_1" xmlns="http://www.w3.org/2000/svg" xmlns:xlink="http://www.w3.org/1999/xlink" x="0px" y="0px"
	 viewBox="0 0 634.209 80.967" style="enable-background:new 0 0 634.209 80.967;" xml:space="preserve">
<style type="text/css">
	.st0{fill:#3BA991;}
</style>
<g>
	<path class="st0" d="M29.112,0.081c3.481,0,6.858,0,10.32,0c-0.447,2.982-0.874,5.888-1.319,8.791
		c-1.168,7.625-2.34,15.249-3.519,22.872c-0.766,4.951-1.542,9.901-2.324,14.849c-0.278,1.757,0.07,2.249,1.862,2.548
		c1.336,0.223,2.673,0.44,4.007,0.674c0.737,0.129,1.017-0.105,1.138-0.904c1.385-9.159,2.825-18.311,4.239-27.466
		c1.05-6.799,2.106-13.598,3.1-20.405C46.738,0.202,47.029-0.008,47.811,0c3.067,0.034,6.135,0.014,9.32,0.014
		c-2.51,16.302-5,32.475-7.514,48.803c2.409,0.374,4.706,0.73,7.13,1.107c2.579-16.69,5.138-33.242,7.704-49.849
		c2.194,0,4.295,0,6.532,0c0,23.386,0,46.76,0,70.206c-10.602,0-21.119,0-31.755,0c-0.352-4.797-2.271-8.737-6.29-11.518
		c-2.583-1.788-5.46-2.622-8.568-2.484c-6.012,0.267-12.847,4.322-13.783,13.995c-3.45,0-6.908,0-10.502,0
		c-0.02-0.422-0.057-0.844-0.057-1.267C0.02,54.334,0.021,39.66,0,24.987c-0.001-0.949,0.219-1.741,0.767-2.543
		C5.711,15.21,10.61,7.946,15.545,0.706c0.21-0.309,0.638-0.646,0.977-0.66c1.669-0.068,3.342-0.031,5.266-0.031
		c-2.505,16.279-4.991,32.439-7.507,48.792c2.364,0.373,4.693,0.74,7.147,1.126C24.002,33.235,26.555,16.669,29.112,0.081z"/>
	<path class="st0" d="M85.08,70.294c-2.265,0-4.447,0-6.711,0c0-21.073,0-42.1,0-63.237c4.568,0,9.13,0,13.839,0
		c0,11.779,0,23.475,0,35.274c9.466,0,18.787,0,28.217,0c0,9.364,0,18.624,0,27.947c-2.254,0-4.471,0-6.782,0
		c-0.244-4.889-2.312-8.805-6.347-11.585c-2.567-1.769-5.471-2.585-8.581-2.416C91.811,56.655,85.618,61.81,85.08,70.294z"/>
	<path class="st0" d="M99.537,7.086c5.337-0.437,10.207,0.427,14.384,3.833c3.94,3.213,6.229,7.343,6.46,12.426
		c0.175,3.85,0.035,7.714,0.035,11.697c-0.407,0.023-0.831,0.069-1.254,0.069c-6.225,0.004-12.45-0.007-18.675,0.016
		c-0.746,0.003-1.057-0.158-1.054-0.987c0.028-8.687,0.018-17.374,0.023-26.06C99.456,7.766,99.506,7.453,99.537,7.086z"/>
	<path class="st0" d="M17.942,70.367c0.046-3.737,3.262-6.901,6.992-6.878c3.825,0.024,7.03,3.217,7.017,6.992
		c-0.013,3.863-3.266,7.057-7.126,6.999C21.006,77.422,17.895,74.207,17.942,70.367z"/>
	<path class="st0" d="M92.422,70.45c0.007-3.847,3.16-6.989,6.985-6.961c3.855,0.028,6.976,3.187,6.944,7.029
		c-0.032,3.876-3.146,6.967-7.005,6.954C95.53,77.46,92.415,74.301,92.422,70.45z"/>
</g>
<g>
	<path d="M170.069,49.914c0-5.024,2.718-21.91,5.601-27.84c4.448-8.978,11.861-12.849,21.745-12.849
		c10.543,0,17.709,5.848,17.709,17.132c0,5.024-2.718,21.91-5.601,27.84c-4.448,8.979-11.778,12.85-21.745,12.85
		C177.235,67.047,170.069,61.198,170.069,49.914z M199.062,50.161c1.895-3.872,4.365-18.697,4.365-22.733
		c0-4.86-2.718-7.907-7.578-7.907c-4.53,0-7.742,2.553-9.637,6.589c-1.977,3.871-4.448,18.697-4.448,22.733
		c0,4.859,2.8,7.907,7.578,7.907C193.873,56.751,197.086,54.197,199.062,50.161z"/>
	<path d="M240,66.14c-0.494,0-0.741-0.329-0.659-0.823l0.494-3.048h-0.082c-2.224,2.801-5.848,4.777-10.873,4.777
		c-7.578,0-11.449-5.024-11.449-13.097c0-5.354,1.565-14.497,4.119-19.603c3.212-6.425,7.907-8.978,14.497-8.978
		c5.189,0,8.237,2.224,9.39,4.859h0.083l3.377-19.274c0.083-0.494,0.412-0.824,0.906-0.824h9.472c0.412,0,0.741,0.33,0.659,0.824
		l-9.555,54.363c-0.082,0.494-0.412,0.823-0.906,0.823H240z M240.741,53.209c1.318-2.553,2.553-9.39,2.553-12.438
		c0-3.871-1.482-6.095-5.271-6.095c-3.047,0-5.271,1.483-6.754,4.53c-1.318,2.636-2.553,9.39-2.553,12.438
		c0,3.871,1.482,6.095,5.271,6.095C237.035,57.739,239.259,56.257,240.741,53.209z"/>
	<path d="M270.476,66.14c-0.494,0-0.824-0.329-0.906-0.823l-7.001-38.219c0-0.494,0.247-0.824,0.741-0.824h9.637
		c0.494,0,0.823,0.165,0.906,0.824l3.212,24.216h0.165l11.696-24.216c0.247-0.659,0.577-0.824,1.153-0.824h10.048
		c0.495,0,0.742,0.33,0.495,0.824l-20.427,38.219c-0.247,0.494-0.577,0.823-1.071,0.823H270.476z"/>
	<path d="M299.799,52.715c0-4.695,1.318-12.19,3.542-16.721c3.707-7.578,10.131-10.625,18.45-10.625
		c9.143,0,14.991,5.189,14.991,14.332c0,4.695-1.318,12.19-3.542,16.721c-3.707,7.578-10.131,10.625-18.45,10.625
		C305.647,67.047,299.799,61.857,299.799,52.715z M323.027,53.209c1.4-2.883,2.636-9.719,2.636-12.438
		c0-3.871-1.482-6.095-5.354-6.095c-3.047,0-5.271,1.483-6.754,4.53c-1.4,2.883-2.636,9.719-2.636,12.438
		c0,3.871,1.482,6.095,5.354,6.095C319.32,57.739,321.544,56.257,323.027,53.209z"/>
	<path d="M339.419,66.14c-0.412,0-0.741-0.329-0.659-0.823l1.236-7.167c0.082-0.329,0.247-0.577,0.494-0.824l21.827-21.909v-0.165
		h-16.556c-0.412,0-0.659-0.33-0.577-0.824l1.318-7.331c0.082-0.494,0.411-0.824,0.906-0.824h29.075c0.412,0,0.659,0.33,0.576,0.824
		l-1.235,7.331c-0.082,0.412-0.247,0.659-0.494,0.989l-21.58,21.415v0.247h17.297c0.494,0,0.741,0.33,0.659,0.824l-1.318,7.414
		c-0.082,0.494-0.411,0.823-0.988,0.823H339.419z"/>
	<path d="M398.147,49.914c0-5.024,2.718-21.91,5.601-27.84c4.447-8.978,11.86-12.849,21.745-12.849
		c10.543,0,17.709,5.848,17.709,17.132c0,5.024-2.719,21.91-5.602,27.84c-4.447,8.979-11.778,12.85-21.745,12.85
		C405.312,67.047,398.147,61.198,398.147,49.914z M427.14,50.161c1.894-3.872,4.365-18.697,4.365-22.733
		c0-4.86-2.719-7.907-7.578-7.907c-4.53,0-7.742,2.553-9.637,6.589c-1.977,3.871-4.448,18.697-4.448,22.733
		c0,4.859,2.801,7.907,7.578,7.907C421.951,56.751,425.163,54.197,427.14,50.161z"/>
	<path d="M457.7,66.635c-9.144,0-11.532-4.283-9.967-13.179l3.459-18.615c0.083-0.33-0.082-0.494-0.411-0.494h-2.472
		c-0.494,0-0.658-0.33-0.576-0.824l1.153-6.425c0.082-0.494,0.412-0.824,0.906-0.824h2.471c0.329,0,0.494-0.165,0.576-0.494
		l1.895-10.708c0.083-0.494,0.494-0.824,0.988-0.824h9.308c0.494,0,0.741,0.33,0.659,0.824l-1.895,10.708
		c-0.082,0.33,0,0.494,0.329,0.494h5.024c0.494,0,0.741,0.33,0.659,0.824l-1.07,6.425c-0.083,0.494-0.494,0.824-0.989,0.824h-5.106
		c-0.247,0-0.412,0.165-0.494,0.494l-3.377,18.203c-0.576,3.13,0.165,4.118,2.883,4.118h1.812c0.494,0,0.741,0.33,0.658,0.824
		l-1.399,7.825c-0.083,0.494-0.412,0.823-0.906,0.823H457.7z"/>
	<path d="M468.406,80.967c-0.412,0-0.741-0.33-0.659-0.824l9.308-53.044c0.082-0.494,0.412-0.824,0.906-0.824h9.472
		c0.495,0,0.742,0.33,0.659,0.824l-0.494,3.048h0.082c2.225-2.801,5.849-4.777,10.873-4.777c7.577,0,11.449,5.024,11.449,13.096
		c0,5.354-1.565,14.497-4.119,19.604c-3.212,6.424-7.907,8.978-14.496,8.978c-5.189,0-8.236-2.225-9.39-4.859h-0.083l-3.13,17.955
		c-0.082,0.494-0.411,0.824-0.905,0.824H468.406z M496.164,53.209c1.317-2.636,2.554-9.39,2.554-12.438
		c0-3.871-1.483-6.095-5.271-6.095c-3.048,0-5.271,1.483-6.755,4.53c-1.317,2.553-2.553,9.39-2.553,12.438
		c0,3.871,1.482,6.095,5.271,6.095C492.457,57.739,494.681,56.257,496.164,53.209z"/>
	<path d="M535.537,66.14c-0.411,0-0.741-0.329-0.658-0.823l0.411-2.719h-0.082c-2.307,2.636-6.013,4.448-11.366,4.448
		c-6.013,0-10.79-3.789-10.79-10.131c0-9.637,6.754-14.744,18.367-14.744h6.919c0.33,0,0.577-0.165,0.659-0.494l0.329-1.812
		c0.659-3.872-0.658-5.601-7.001-5.601c-3.953,0-7.001,1.235-9.061,2.636c-0.494,0.33-0.823,0.165-0.988-0.247l-2.471-6.178
		c-0.165-0.494,0-0.906,0.411-1.153c3.625-2.389,9.226-3.954,14.991-3.954c11.778,0,16.474,3.871,14.579,14.332l-4.612,25.617
		c-0.083,0.494-0.412,0.823-0.906,0.823H535.537z M537.02,53.044l0.494-3.048c0.082-0.33-0.083-0.494-0.412-0.494h-5.601
		c-5.437,0-7.743,1.977-7.743,5.601c0,2.224,1.647,3.706,4.942,3.706C533.396,58.809,536.443,56.833,537.02,53.044z"/>
	<path d="M577.462,66.14c-0.494,0-0.741-0.329-0.659-0.823l0.494-3.048h-0.082c-2.224,2.801-5.849,4.777-10.873,4.777
		c-7.577,0-11.448-5.024-11.448-13.097c0-5.354,1.564-14.497,4.118-19.603c3.212-6.425,7.907-8.978,14.496-8.978
		c5.189,0,8.237,2.224,9.391,4.859h0.082l3.377-19.274c0.082-0.494,0.412-0.824,0.906-0.824h9.472c0.412,0,0.741,0.33,0.659,0.824
		l-9.555,54.363c-0.082,0.494-0.412,0.823-0.906,0.823H577.462z M578.203,53.209c1.317-2.553,2.554-9.39,2.554-12.438
		c0-3.871-1.483-6.095-5.271-6.095c-3.048,0-5.271,1.483-6.755,4.53c-1.317,2.636-2.553,9.39-2.553,12.438
		c0,3.871,1.482,6.095,5.271,6.095C574.496,57.739,576.721,56.257,578.203,53.209z"/>
	<path d="M619.552,66.14c-0.411,0-0.741-0.329-0.658-0.823l0.411-2.719h-0.082c-2.307,2.636-6.013,4.448-11.366,4.448
		c-6.013,0-10.79-3.789-10.79-10.131c0-9.637,6.754-14.744,18.367-14.744h6.919c0.329,0,0.577-0.165,0.659-0.494l0.329-1.812
		c0.659-3.872-0.659-5.601-7.001-5.601c-3.953,0-7.001,1.235-9.061,2.636c-0.494,0.33-0.823,0.165-0.988-0.247l-2.471-6.178
		c-0.165-0.494,0-0.906,0.412-1.153c3.624-2.389,9.225-3.954,14.99-3.954c11.778,0,16.474,3.871,14.579,14.332l-4.612,25.617
		c-0.083,0.494-0.412,0.823-0.906,0.823H619.552z M621.035,53.044l0.494-3.048c0.082-0.33-0.083-0.494-0.412-0.494h-5.601
		c-5.437,0-7.743,1.977-7.743,5.601c0,2.224,1.647,3.706,4.942,3.706C617.41,58.809,620.458,56.833,621.035,53.044z"/>
</g>
</svg>
